<svg xmlns="http://www.w3.org/2000/svg"  xmlns:xlink="http://www.w3.org/1999/xlink"  class="bk-icon -streamline-star_half" height="128" style="display:none;" width="128" viewBox="0 0 128 128" role="presentation" aria-hidden="true" focusable="false"><path d="M126.76 45.92a11.75 11.75 0 0 0-10.93-7.6H85.77L74.93 7.58A11.67 11.67 0 0 0 64 0h-.82c-.23 0-.45 0-.68.07-.23.07-.28 0-.42.06l-.72.15L61 .4c-.36.1-.71.21-1.07.34a11.65 11.65 0 0 0-6.83 6.84L42.25 38.31H12.18a11.67 11.67 0 0 0-11.13 8.18A11.39 11.39 0 0 0 .52 50a11.65 11.65 0 0 0 4.19 9l25.71 21.24-10.81 32.41c-2.024 6.113 1.282 12.711 7.39 14.75.4.13.81.23 1.21.32l.31.06c.39.082.783.139 1.18.17h1.59c.388-.017.776-.054 1.16-.11h.06a9.704 9.704 0 0 0 1.18-.26l.31-.08c.383-.114.76-.247 1.13-.4q.55-.24 1.11-.54l.26-.15c.365-.208.719-.435 1.06-.68L64 106.35l26.43 19.38a11.563 11.563 0 0 0 6.88 2.27c.596.001 1.19-.042 1.78-.13 6.367-.967 10.744-6.911 9.778-13.278-.1-.659-.257-1.309-.468-1.942L97.59 80.22l25.8-21.39a11.7 11.7 0 0 0 3.37-12.91zm-8.52 6.79l-26.52 22a6.59 6.59 0 0 0-2 7.11l11.12 33.37a3.66 3.66 0 0 1-2.95 4.81 3.578 3.578 0 0 1-2.72-.68l-27.29-20-.14-.08a6.781 6.781 0 0 0-.76-.47c-.16-.08-.33-.14-.49-.21-.16-.07-.3-.13-.46-.18-.16-.05-.39-.1-.58-.15L64.06 8a3.61 3.61 0 0 1 3.35 2.3l11.15 31.63a6.58 6.58 0 0 0 6.19 4.38h31.07a3.7 3.7 0 0 1 3.44 2.39 3.66 3.66 0 0 1-1.02 4.01z"></path></svg>