<svg xmlns="http://www.w3.org/2000/svg"  xmlns:xlink="http://www.w3.org/1999/xlink"  class="bk-icon -fonticon-checkno2" height="32" width="32" viewBox="0 0 32 32" role="presentation" aria-hidden="true" focusable="false">
  <path d="M16 30c7.732 0 14-6.268 14-14S23.732 2 16 2 2 8.268 2 16s6.268 14 14 14zm0 2C7.163 32 0 24.837 0 16S7.163 0 16 0s16 7.163 16 16-7.163 16-16 16z"></path>
  <path d="M24.587 11.039L13.825 21.583c-.054.09-.12.182-.208.271l-.504.505c-.278.278-.607.403-.733.276l-5.125-5.366c-.126-.126-.002-.454.276-.732l.504-.505c.279-.279.607-.403.733-.277l3.842 4.022L23.073 9.525a.715.715 0 0 1 1.009 0l.505.505a.715.715 0 0 1 0 1.009z"></path>
</svg>